<svg width="50" height="51" viewBox="0 0 50 51" fill="none" xmlns="http://www.w3.org/2000/svg">
<circle cx="25" cy="25.8438" r="25" fill="#6A19F5"/>
<path d="M18.728 34.0838C16.568 34.0838 14.928 33.3957 13.808 32.0197C12.704 30.6437 12.152 28.6117 12.152 25.9237C12.152 23.2357 12.704 21.2037 13.808 19.8277C14.928 18.4517 16.568 17.7637 18.728 17.7637C20.888 17.7637 22.52 18.4517 23.624 19.8277C24.744 21.2037 25.304 23.2357 25.304 25.9237C25.304 28.6117 24.744 30.6437 23.624 32.0197C22.52 33.3957 20.888 34.0838 18.728 34.0838ZM18.728 30.8677C19.32 30.8677 19.8 30.7077 20.168 30.3877C20.536 30.0517 20.8 29.5237 20.96 28.8037C21.136 28.0677 21.224 27.1077 21.224 25.9237C21.224 24.7397 21.136 23.7877 20.96 23.0677C20.8 22.3317 20.536 21.8037 20.168 21.4837C19.8 21.1477 19.32 20.9797 18.728 20.9797C18.152 20.9797 17.672 21.1477 17.288 21.4837C16.92 21.8037 16.648 22.3317 16.472 23.0677C16.312 23.7877 16.232 24.7397 16.232 25.9237C16.232 27.1077 16.312 28.0677 16.472 28.8037C16.648 29.5237 16.92 30.0517 17.288 30.3877C17.672 30.7077 18.152 30.8677 18.728 30.8677ZM32.2293 33.8438V24.7237C32.2293 24.3077 32.2293 23.8837 32.2293 23.4517C32.2453 23.0037 32.2533 22.5477 32.2533 22.0837C31.7253 22.5637 31.1413 22.9877 30.5013 23.3557C29.8613 23.7077 29.1893 23.9477 28.4853 24.0757L28.1013 20.6677C28.5173 20.6357 28.9573 20.5317 29.4213 20.3557C29.9013 20.1797 30.3733 19.9637 30.8373 19.7077C31.3013 19.4517 31.7173 19.1797 32.0853 18.8917C32.4533 18.5877 32.7333 18.2917 32.9253 18.0037H36.2133V33.8438H32.2293Z" fill="white"/>
</svg>
