<svg width="50" height="51" viewBox="0 0 50 51" fill="none" xmlns="http://www.w3.org/2000/svg">
<circle cx="25" cy="25.8438" r="24" stroke="#6A19F5" stroke-width="2" stroke-dasharray="5 5"/>
<path d="M16.728 34.0838C14.568 34.0838 12.928 33.3957 11.808 32.0197C10.704 30.6437 10.152 28.6117 10.152 25.9237C10.152 23.2357 10.704 21.2037 11.808 19.8277C12.928 18.4517 14.568 17.7637 16.728 17.7637C18.888 17.7637 20.52 18.4517 21.624 19.8277C22.744 21.2037 23.304 23.2357 23.304 25.9237C23.304 28.6117 22.744 30.6437 21.624 32.0197C20.52 33.3957 18.888 34.0838 16.728 34.0838ZM16.728 30.8677C17.32 30.8677 17.8 30.7077 18.168 30.3877C18.536 30.0517 18.8 29.5237 18.96 28.8037C19.136 28.0677 19.224 27.1077 19.224 25.9237C19.224 24.7397 19.136 23.7877 18.96 23.0677C18.8 22.3317 18.536 21.8037 18.168 21.4837C17.8 21.1477 17.32 20.9797 16.728 20.9797C16.152 20.9797 15.672 21.1477 15.288 21.4837C14.92 21.8037 14.648 22.3317 14.472 23.0677C14.312 23.7877 14.232 24.7397 14.232 25.9237C14.232 27.1077 14.312 28.0677 14.472 28.8037C14.648 29.5237 14.92 30.0517 15.288 30.3877C15.672 30.7077 16.152 30.8677 16.728 30.8677ZM27.0853 33.8438V31.2037C28.4453 30.3557 29.6053 29.5637 30.5653 28.8277C31.5253 28.0917 32.3013 27.3957 32.8933 26.7397C33.5013 26.0837 33.9493 25.4597 34.2373 24.8677C34.5253 24.2757 34.6693 23.6997 34.6693 23.1397C34.6693 22.5317 34.4853 22.0277 34.1173 21.6277C33.7653 21.2117 33.2373 21.0037 32.5333 21.0037C31.7813 21.0037 31.1973 21.2837 30.7813 21.8438C30.3653 22.3877 30.1413 23.1877 30.1093 24.2437L26.5813 23.1637C26.6133 21.9797 26.8933 20.9877 27.4213 20.1877C27.9653 19.3877 28.7013 18.7877 29.6293 18.3877C30.5573 17.9717 31.6133 17.7637 32.7973 17.7637C33.8373 17.7637 34.7333 17.9157 35.4853 18.2197C36.2533 18.5077 36.8773 18.8997 37.3573 19.3957C37.8373 19.8757 38.1893 20.4197 38.4133 21.0277C38.6533 21.6197 38.7733 22.2277 38.7733 22.8517C38.7733 23.8757 38.5093 24.8357 37.9813 25.7317C37.4533 26.6117 36.6853 27.4677 35.6773 28.2997C34.6853 29.1157 33.4773 29.9397 32.0533 30.7717V30.7957C32.3253 30.7797 32.6453 30.7637 33.0133 30.7477C33.3813 30.7317 33.7653 30.7237 34.1653 30.7237C34.5653 30.7077 34.9253 30.6997 35.2453 30.6997H38.9653V33.8438H27.0853Z" fill="#6A19F5"/>
</svg>
