<svg width="50" height="51" viewBox="0 0 50 51" fill="none" xmlns="http://www.w3.org/2000/svg">
<circle cx="25" cy="25.8438" r="24" stroke="#6A19F5" stroke-width="2" stroke-dasharray="5 5"/>
<path d="M16.728 34.0838C14.568 34.0838 12.928 33.3957 11.808 32.0197C10.704 30.6437 10.152 28.6117 10.152 25.9237C10.152 23.2357 10.704 21.2037 11.808 19.8277C12.928 18.4517 14.568 17.7637 16.728 17.7637C18.888 17.7637 20.52 18.4517 21.624 19.8277C22.744 21.2037 23.304 23.2357 23.304 25.9237C23.304 28.6117 22.744 30.6437 21.624 32.0197C20.52 33.3957 18.888 34.0838 16.728 34.0838ZM16.728 30.8677C17.32 30.8677 17.8 30.7077 18.168 30.3877C18.536 30.0517 18.8 29.5237 18.96 28.8037C19.136 28.0677 19.224 27.1077 19.224 25.9237C19.224 24.7397 19.136 23.7877 18.96 23.0677C18.8 22.3317 18.536 21.8037 18.168 21.4837C17.8 21.1477 17.32 20.9797 16.728 20.9797C16.152 20.9797 15.672 21.1477 15.288 21.4837C14.92 21.8037 14.648 22.3317 14.472 23.0677C14.312 23.7877 14.232 24.7397 14.232 25.9237C14.232 27.1077 14.312 28.0677 14.472 28.8037C14.648 29.5237 14.92 30.0517 15.288 30.3877C15.672 30.7077 16.152 30.8677 16.728 30.8677ZM32.6818 34.0838C30.9858 34.0838 29.5698 33.7558 28.4338 33.0997C27.3138 32.4277 26.5378 31.4517 26.1058 30.1717L29.8978 28.5397C29.9778 29.1157 30.1218 29.5797 30.3298 29.9317C30.5538 30.2677 30.8498 30.5157 31.2178 30.6758C31.5858 30.8197 32.0178 30.8917 32.5138 30.8917C32.9618 30.8917 33.3378 30.8197 33.6418 30.6758C33.9618 30.5157 34.2098 30.2917 34.3858 30.0037C34.5618 29.7157 34.6498 29.3717 34.6498 28.9717C34.6498 28.5557 34.5618 28.2197 34.3858 27.9637C34.2258 27.7077 33.9858 27.5237 33.6658 27.4117C33.3618 27.2997 32.9858 27.2437 32.5378 27.2437C32.3298 27.2437 32.1378 27.2517 31.9618 27.2677C31.7858 27.2677 31.5858 27.2837 31.3618 27.3157V24.6277C31.4898 24.6437 31.6178 24.6597 31.7458 24.6757C31.8738 24.6757 32.0258 24.6757 32.2018 24.6757C32.9538 24.6757 33.4898 24.5237 33.8098 24.2197C34.1458 23.8997 34.3138 23.4037 34.3138 22.7317C34.3138 22.1557 34.1458 21.7157 33.8098 21.4117C33.4898 21.1077 33.0338 20.9557 32.4418 20.9557C31.8178 20.9557 31.3058 21.1237 30.9058 21.4597C30.5058 21.7797 30.2498 22.3317 30.1378 23.1157L26.5138 21.8677C26.6898 20.9877 27.0658 20.2437 27.6418 19.6357C28.2178 19.0277 28.9378 18.5637 29.8018 18.2437C30.6818 17.9237 31.6498 17.7637 32.7058 17.7637C33.9218 17.7637 34.9458 17.9397 35.7778 18.2917C36.6098 18.6437 37.2418 19.1477 37.6738 19.8037C38.1058 20.4597 38.3218 21.2277 38.3218 22.1077C38.3218 22.7957 38.2098 23.3717 37.9858 23.8357C37.7778 24.2997 37.5058 24.6757 37.1698 24.9637C36.8498 25.2517 36.5218 25.4677 36.1858 25.6117C35.8498 25.7397 35.5698 25.8197 35.3458 25.8517V25.9237C35.6338 25.9237 35.9618 25.9797 36.3298 26.0917C36.6978 26.2037 37.0578 26.3877 37.4098 26.6437C37.7618 26.8837 38.0498 27.2197 38.2738 27.6517C38.5138 28.0837 38.6338 28.6197 38.6338 29.2597C38.6338 30.2517 38.3698 31.1077 37.8418 31.8277C37.3298 32.5477 36.6258 33.1077 35.7298 33.5077C34.8338 33.8918 33.8178 34.0838 32.6818 34.0838Z" fill="#6A19F5"/>
</svg>
