<svg width="50" height="51" viewBox="0 0 50 51" fill="none" xmlns="http://www.w3.org/2000/svg">
<circle cx="25" cy="25.8438" r="24" stroke="#6A19F5" stroke-width="2" stroke-dasharray="5 5"/>
<path d="M16.728 34.0838C14.568 34.0838 12.928 33.3957 11.808 32.0197C10.704 30.6437 10.152 28.6117 10.152 25.9237C10.152 23.2357 10.704 21.2037 11.808 19.8277C12.928 18.4517 14.568 17.7637 16.728 17.7637C18.888 17.7637 20.52 18.4517 21.624 19.8277C22.744 21.2037 23.304 23.2357 23.304 25.9237C23.304 28.6117 22.744 30.6437 21.624 32.0197C20.52 33.3957 18.888 34.0838 16.728 34.0838ZM16.728 30.8677C17.32 30.8677 17.8 30.7077 18.168 30.3877C18.536 30.0517 18.8 29.5237 18.96 28.8037C19.136 28.0677 19.224 27.1077 19.224 25.9237C19.224 24.7397 19.136 23.7877 18.96 23.0677C18.8 22.3317 18.536 21.8037 18.168 21.4837C17.8 21.1477 17.32 20.9797 16.728 20.9797C16.152 20.9797 15.672 21.1477 15.288 21.4837C14.92 21.8037 14.648 22.3317 14.472 23.0677C14.312 23.7877 14.232 24.7397 14.232 25.9237C14.232 27.1077 14.312 28.0677 14.472 28.8037C14.648 29.5237 14.92 30.0517 15.288 30.3877C15.672 30.7077 16.152 30.8677 16.728 30.8677ZM34.4053 33.8438V30.3637H26.6773V27.7717C26.8213 27.5157 27.0053 27.2037 27.2293 26.8357C27.4693 26.4677 27.7493 26.0437 28.0693 25.5637L33.2293 18.0037H38.0533V27.5317H40.4773V30.3637H38.0533V33.8438H34.4053ZM29.9893 27.5317H34.4533V22.7317C34.4533 22.4117 34.4613 22.0837 34.4773 21.7477C34.4933 21.3957 34.5093 21.0437 34.5253 20.6917H34.4773C34.3173 21.0277 34.1253 21.3797 33.9013 21.7477C33.6933 22.0997 33.4933 22.4197 33.3013 22.7077L30.4933 26.8117C30.4133 26.9397 30.3333 27.0597 30.2533 27.1717C30.1733 27.2837 30.0853 27.4037 29.9893 27.5317Z" fill="#6A19F5"/>
</svg>
