<svg width="50" height="51" viewBox="0 0 50 51" fill="none" xmlns="http://www.w3.org/2000/svg">
<circle cx="25" cy="25.8438" r="24" stroke="#6A19F5" stroke-width="2" stroke-dasharray="5 5"/>
<path d="M16.728 34.0838C14.568 34.0838 12.928 33.3957 11.808 32.0197C10.704 30.6437 10.152 28.6117 10.152 25.9237C10.152 23.2357 10.704 21.2037 11.808 19.8277C12.928 18.4517 14.568 17.7637 16.728 17.7637C18.888 17.7637 20.52 18.4517 21.624 19.8277C22.744 21.2037 23.304 23.2357 23.304 25.9237C23.304 28.6117 22.744 30.6437 21.624 32.0197C20.52 33.3957 18.888 34.0838 16.728 34.0838ZM16.728 30.8677C17.32 30.8677 17.8 30.7077 18.168 30.3877C18.536 30.0517 18.8 29.5237 18.96 28.8037C19.136 28.0677 19.224 27.1077 19.224 25.9237C19.224 24.7397 19.136 23.7877 18.96 23.0677C18.8 22.3317 18.536 21.8037 18.168 21.4837C17.8 21.1477 17.32 20.9797 16.728 20.9797C16.152 20.9797 15.672 21.1477 15.288 21.4837C14.92 21.8037 14.648 22.3317 14.472 23.0677C14.312 23.7877 14.232 24.7397 14.232 25.9237C14.232 27.1077 14.312 28.0677 14.472 28.8037C14.648 29.5237 14.92 30.0517 15.288 30.3877C15.672 30.7077 16.152 30.8677 16.728 30.8677ZM32.3687 34.0838C30.9927 34.0838 29.7927 33.8197 28.7687 33.2917C27.7607 32.7477 26.9127 31.8677 26.2247 30.6517L29.8487 28.8517C30.0247 29.4917 30.3047 30.0037 30.6887 30.3877C31.0887 30.7717 31.6807 30.9637 32.4647 30.9637C32.9607 30.9637 33.3847 30.8757 33.7367 30.6997C34.0887 30.5237 34.3607 30.2677 34.5527 29.9317C34.7607 29.5797 34.8647 29.1557 34.8647 28.6597C34.8647 28.1797 34.7687 27.7797 34.5767 27.4597C34.4007 27.1397 34.1367 26.8997 33.7847 26.7397C33.4327 26.5637 32.9927 26.4757 32.4647 26.4757C32.0807 26.4757 31.7367 26.5157 31.4327 26.5957C31.1287 26.6597 30.8487 26.7637 30.5927 26.9077C30.3527 27.0357 30.1287 27.2037 29.9207 27.4117L26.8007 26.8357L27.8087 18.0037H37.7927V21.1957H30.8087L30.4007 24.3637L30.3287 24.7477H30.3527C30.6727 24.3797 31.1207 24.0997 31.6967 23.9077C32.2727 23.7157 32.9127 23.6197 33.6167 23.6197C34.6567 23.6197 35.5447 23.8277 36.2807 24.2437C37.0167 24.6597 37.5847 25.2277 37.9847 25.9477C38.3847 26.6677 38.5847 27.4917 38.5847 28.4197C38.5847 29.3957 38.4167 30.2437 38.0807 30.9637C37.7607 31.6677 37.3047 32.2517 36.7127 32.7157C36.1367 33.1797 35.4727 33.5237 34.7207 33.7477C33.9847 33.9718 33.2007 34.0838 32.3687 34.0838Z" fill="#6A19F5"/>
</svg>
