<svg width="50" height="51" viewBox="0 0 50 51" fill="none" xmlns="http://www.w3.org/2000/svg">
<circle cx="25" cy="25.8438" r="24" stroke="#6A19F5" stroke-width="2" stroke-dasharray="5 5"/>
<path d="M16.728 34.0838C14.568 34.0838 12.928 33.3957 11.808 32.0197C10.704 30.6437 10.152 28.6117 10.152 25.9237C10.152 23.2357 10.704 21.2037 11.808 19.8277C12.928 18.4517 14.568 17.7637 16.728 17.7637C18.888 17.7637 20.52 18.4517 21.624 19.8277C22.744 21.2037 23.304 23.2357 23.304 25.9237C23.304 28.6117 22.744 30.6437 21.624 32.0197C20.52 33.3957 18.888 34.0838 16.728 34.0838ZM16.728 30.8677C17.32 30.8677 17.8 30.7077 18.168 30.3877C18.536 30.0517 18.8 29.5237 18.96 28.8037C19.136 28.0677 19.224 27.1077 19.224 25.9237C19.224 24.7397 19.136 23.7877 18.96 23.0677C18.8 22.3317 18.536 21.8037 18.168 21.4837C17.8 21.1477 17.32 20.9797 16.728 20.9797C16.152 20.9797 15.672 21.1477 15.288 21.4837C14.92 21.8037 14.648 22.3317 14.472 23.0677C14.312 23.7877 14.232 24.7397 14.232 25.9237C14.232 27.1077 14.312 28.0677 14.472 28.8037C14.648 29.5237 14.92 30.0517 15.288 30.3877C15.672 30.7077 16.152 30.8677 16.728 30.8677ZM33.8533 17.7637C34.7013 17.7637 35.4853 17.8757 36.2053 18.0997C36.9413 18.3237 37.5813 18.6917 38.1253 19.2037C38.6693 19.7157 39.0773 20.4037 39.3493 21.2677L35.9893 22.8517C35.8293 22.2917 35.5493 21.8517 35.1493 21.5317C34.7653 21.1957 34.2453 21.0277 33.5893 21.0277C33.1413 21.0277 32.7253 21.1397 32.3413 21.3637C31.9733 21.5717 31.6533 21.8757 31.3813 22.2757C31.1093 22.6757 30.9013 23.1637 30.7573 23.7397C30.6293 24.3157 30.5653 24.9637 30.5653 25.6837C30.5653 25.7317 30.5653 25.7877 30.5653 25.8517C30.5653 25.8997 30.5653 25.9717 30.5653 26.0677L30.6133 26.2117C30.8053 25.7317 31.1013 25.3317 31.5013 25.0117C31.9173 24.6757 32.3893 24.4197 32.9173 24.2437C33.4453 24.0677 33.9733 23.9797 34.5013 23.9797C35.4773 23.9797 36.3493 24.1717 37.1173 24.5557C37.8853 24.9397 38.4853 25.4917 38.9173 26.2117C39.3653 26.9157 39.5893 27.7717 39.5893 28.7797C39.5893 29.8677 39.3413 30.8117 38.8453 31.6117C38.3493 32.3957 37.6613 33.0037 36.7813 33.4357C35.9013 33.8678 34.8533 34.0838 33.6373 34.0838C32.2773 34.0838 31.0773 33.7878 30.0373 33.1957C29.0133 32.5877 28.2133 31.6917 27.6373 30.5077C27.0773 29.3077 26.7973 27.8277 26.7973 26.0677C26.7973 24.1797 27.1093 22.6277 27.7333 21.4117C28.3573 20.1957 29.1973 19.2837 30.2533 18.6757C31.3253 18.0677 32.5253 17.7637 33.8533 17.7637ZM33.5653 26.7637C33.1493 26.7637 32.7653 26.8517 32.4133 27.0277C32.0773 27.1877 31.8053 27.4277 31.5973 27.7477C31.4053 28.0677 31.3093 28.4437 31.3093 28.8757C31.3093 29.2917 31.4133 29.6597 31.6213 29.9797C31.8293 30.2997 32.1013 30.5477 32.4373 30.7237C32.7733 30.8997 33.1493 30.9877 33.5653 30.9877C34.2853 30.9877 34.8373 30.8037 35.2213 30.4357C35.6213 30.0677 35.8213 29.5477 35.8213 28.8757C35.8213 28.4277 35.7333 28.0517 35.5573 27.7477C35.3813 27.4277 35.1253 27.1877 34.7893 27.0277C34.4693 26.8517 34.0613 26.7637 33.5653 26.7637Z" fill="#6A19F5"/>
</svg>
