<svg width="24" height="46" viewBox="0 0 24 46" fill="none" xmlns="http://www.w3.org/2000/svg">
<path d="M1.14401 4.67355C0.21973 3.64784 0.301956 2.06707 1.32767 1.14279C2.35337 0.218514 3.93415 0.30074 4.85843 1.32645L1.14401 4.67355ZM21.0234 23L22.8806 21.3264C23.7377 22.2776 23.7377 23.7224 22.8806 24.6735L21.0234 23ZM4.85843 44.6735C3.93415 45.6993 2.35337 45.7815 1.32767 44.8572C0.301958 43.9329 0.219732 42.3522 1.14401 41.3265L4.85843 44.6735ZM4.85843 1.32645L22.8806 21.3264L19.1662 24.6735L1.14401 4.67355L4.85843 1.32645ZM22.8806 24.6735L4.85843 44.6735L1.14401 41.3265L19.1662 21.3264L22.8806 24.6735Z" fill="#6A19F5"/>
</svg>
