<svg width="1920" height="986" viewBox="0 0 1920 986" fill="none" xmlns="http://www.w3.org/2000/svg">
<path d="M465.575 4.45171C283.722 -18.5269 77.4301 53.9845 0 73.1333V956.577C145.741 986.896 185.534 1001.79 516.808 961.363C848.083 920.938 973.43 1024.13 1326.09 961.363C1629.85 907.301 1832.79 917.746 1920 943.278V54.4524C1762.82 21.2965 1506.75 2.11223 1367.88 54.4524C1194.28 119.878 692.891 33.175 465.575 4.45171Z" fill="#FFB9CA"/>
<path d="M493.074 43.4044C310.985 20.3504 77.5305 52.7307 0 71.9424V950.091C427.829 977.841 383.502 896.993 684.825 930.345C911.44 955.428 1103.69 936.215 1441.37 880.715C1711.51 836.315 1832.67 920.204 1920 945.82V79.6938C1762.61 46.4291 1518.57 -4.0906 1274.02 43.4038C992.623 98.0563 720.685 72.222 493.074 43.4044Z" fill="#FF6D8D"/>
</svg>
